<?xml version="1.0" encoding="utf-8"?>
<svg id="Capa_1" enable-background="new 0 0 497 497" height="512" viewBox="0 -18.928 523.499 515.928" width="512" xmlns="http://www.w3.org/2000/svg" xmlns:bx="https://boxy-svg.com" preserveAspectRatio="none"><defs><linearGradient gradientUnits="userSpaceOnUse" x1="355.97" y1="-11.344" x2="355.97" y2="276.302" id="gradient-0" gradientTransform="matrix(0.780736, -0.62486, 0.166545, 0.208092, 15.154566, 378.679092)"><stop offset="0" style="stop-color: rgb(255, 183, 130);"/><stop offset="1" style="stop-color: rgb(68, 32, 9);"/></linearGradient><linearGradient gradientUnits="userSpaceOnUse" x1="342.527" y1="1.019" x2="342.527" y2="308.862" id="gradient-1" gradientTransform="matrix(0.998894, -0.047006, 0.039867, 0.847178, 0.338014, 16.25665)"><stop offset="0" style="stop-color: rgb(137, 86, 59);"/><stop offset="1" style="stop-color: rgb(64, 33, 12);"/></linearGradient><linearGradient gradientUnits="userSpaceOnUse" x1="164.499" y1="255.164" x2="164.499" y2="406.156" id="gradient-2"><stop offset="0" style="stop-color: rgb(205, 214, 218);"/><stop offset="1" style="stop-color: rgb(103, 110, 113);"/></linearGradient><linearGradient gradientUnits="userSpaceOnUse" x1="198.661" y1="240.829" x2="198.661" y2="313.255" id="gradient-3" gradientTransform="matrix(0.976868, 0.213842, -0.185654, 0.848102, 49.306214, -5.900498)"><stop offset="0" style="stop-color: rgb(223, 245, 255)"/><stop offset="1" style="stop-color: rgb(121, 121, 121);"/></linearGradient><linearGradient gradientUnits="userSpaceOnUse" x1="232.676" y1="287.65" x2="232.676" y2="334.469" id="gradient-4"><stop offset="0" style="stop-color: rgb(191, 235, 255)"/><stop offset="1" style="stop-color: rgb(97, 97, 97);"/></linearGradient><linearGradient gradientUnits="userSpaceOnUse" x1="62.592" y1="356.575" x2="62.592" y2="495.227" id="gradient-5" gradientTransform="matrix(0.900097, 0.435692, -0.311, 0.626153, 121.249606, 132.568561)"><stop offset="0" style="stop-color: rgb(0, 33, 65);"/><stop offset="1" style="stop-color: rgb(255, 227, 0);"/></linearGradient><linearGradient gradientUnits="userSpaceOnUse" x1="71.27" y1="394.489" x2="71.27" y2="496.998" id="gradient-6" gradientTransform="matrix(0.797656, 0.603114, -0.475346, 0.621376, 228.488051, 118.046115)"><stop offset="0" style="stop-color: rgb(5, 27, 48);"/><stop offset="1" style="stop-color: rgb(255, 227, 0);"/></linearGradient><bx:export><bx:file format="svg" path="brush.svg"/></bx:export></defs><g><path d="M 251.693 308.862 L 188.053 287.649 L 251.693 308.862 Z" style="fill: url(&quot;#gradient-1&quot;); stroke-width: 10px; stroke: rgb(0, 0, 0);"/><path d="M 491.698 27.206 C 508.303 4.501 478.884 -12.694 459.544 1.683 C 385.651 56.614 265.736 172.868 188.053 245.222 C 166.794 265.022 242.8 311.396 254.077 302.114 C 294.124 264.365 463.218 75.723 491.698 27.206 Z" style="fill: url(&quot;#gradient-0&quot;); stroke: rgb(0, 0, 0); stroke-width: 10px;"/><path d="m203.884 282.267-106.066 106.066 42.524 21.312 101.41-89.511z" fill="#a6cfe7" style="stroke-width: 10px; stroke: rgb(0, 0, 0);"/><path d="M 176.781 255.164 L 87.272 356.575 L 140.088 406.156 C 146.94 405.303 213.033 345.008 241.725 315.545 L 176.781 255.164 Z" style="stroke-width: 10px; stroke: rgb(0, 0, 0); fill: url(&quot;#gradient-2&quot;);"/><path d="m251.693 308.862-21.213-21.212-21.214 21.212 21.213 21.213c5.858 5.858 15.355 5.858 21.213 0 5.859-5.858 5.859-15.355.001-21.213z" style="stroke-width: 10px; stroke: rgb(0, 0, 0); fill: url(&quot;#gradient-4&quot;);"/><path d="m230.48 308.862c5.858-5.858 5.858-15.355.001-21.212l-42.427-42.427c-5.858-5.858-15.355-5.858-21.213 0s-5.858 15.355 0 21.213l42.426 42.426c5.857 5.858 15.355 5.858 21.213 0z" style="stroke: rgb(0, 0, 0); stroke-width: 10px; fill: url(&quot;#gradient-3&quot;);"/><path d="m2.199 494.767c1.35 1.358 3.214 2.205 5.28 2.224 40.277.376 80.67-14.587 111.645-44.924 12.377-12.161 19.612-27.511 21.217-42.422l-15.156-15.156z" style="stroke: rgb(0, 0, 0); stroke-width: 10px; fill: url(&quot;#gradient-6&quot;);"/><g fill="#435d7a"><path d="m2.199 494.767c-.008-.008-.015-.018-.024-.026.009.008.016.017.024.026z"/><path d="m125.186 394.489-11.379-11.379z"/><path d="m87.272 356.575c-14.911 1.605-30.261 8.841-42.422 21.217-30.338 30.976-45.227 71.442-44.843 111.728.019 2.036.844 3.875 2.168 5.22.604.598 1.688.664 3.147.093 28.667-11.234 61.797-33.459 92.59-63.978 12.315-12.223 21.868-25.255 27.273-36.366z" style="stroke: rgb(0, 0, 0); stroke-width: 10px; fill: url(&quot;#gradient-5&quot;);"/></g></g></svg>