<svg id="Capa_1" enable-background="new 0 0 497 497" height="512" viewBox="0 0 497 497" width="512" xmlns="http://www.w3.org/2000/svg"><g><path d="m466.253 467h-437v-437h437zm-422-15h407v-407h-407z" fill="#8db3cf"/><g><path d="m67.5 497h-22.5l-30-37.5 30-37.5h22.5c4.142 0 7.5 3.358 7.5 7.5v60c0 4.142-3.358 7.5-7.5 7.5z" fill="#bfebff"/><path d="m45 497h-37.5c-4.142 0-7.5-3.358-7.5-7.5v-60c0-4.142 3.358-7.5 7.5-7.5h37.5z" fill="#dff5ff"/><path d="m67.5 286h-22.5l-30-37.5 30-37.5h22.5c4.142 0 7.5 3.358 7.5 7.5v60c0 4.142-3.358 7.5-7.5 7.5z" fill="#bfebff"/><path d="m45 286h-37.5c-4.142 0-7.5-3.358-7.5-7.5v-60c0-4.142 3.358-7.5 7.5-7.5h37.5z" fill="#dff5ff"/><path d="m67.5 75h-22.5l-30-37.5 30-37.5h22.5c4.142 0 7.5 3.358 7.5 7.5v60c0 4.142-3.358 7.5-7.5 7.5z" fill="#bfebff"/><path d="m45 75h-37.5c-4.142 0-7.5-3.358-7.5-7.5v-60c0-4.142 3.358-7.5 7.5-7.5h37.5z" fill="#dff5ff"/><path d="m278.5 497h-22.5l-30-37.5 30-37.5h22.5c4.142 0 7.5 3.358 7.5 7.5v60c0 4.142-3.358 7.5-7.5 7.5z" fill="#bfebff"/><path d="m256 497h-37.5c-4.142 0-7.5-3.358-7.5-7.5v-60c0-4.142 3.358-7.5 7.5-7.5h37.5z" fill="#dff5ff"/><path d="m278.5 75h-22.5l-30-37.5 30-37.5h22.5c4.142 0 7.5 3.358 7.5 7.5v60c0 4.142-3.358 7.5-7.5 7.5z" fill="#bfebff"/><path d="m256 75h-37.5c-4.142 0-7.5-3.358-7.5-7.5v-60c0-4.142 3.358-7.5 7.5-7.5h37.5z" fill="#dff5ff"/><path d="m489.5 497h-22.5l-30-37.5 30-37.5h22.5c4.142 0 7.5 3.358 7.5 7.5v60c0 4.142-3.358 7.5-7.5 7.5z" fill="#bfebff"/><path d="m467 497h-37.5c-4.142 0-7.5-3.358-7.5-7.5v-60c0-4.142 3.358-7.5 7.5-7.5h37.5z" fill="#dff5ff"/><path d="m489.5 286h-22.5l-30-37.5 30-37.5h22.5c4.142 0 7.5 3.358 7.5 7.5v60c0 4.142-3.358 7.5-7.5 7.5z" fill="#bfebff"/><path d="m467 286h-37.5c-4.142 0-7.5-3.358-7.5-7.5v-60c0-4.142 3.358-7.5 7.5-7.5h37.5z" fill="#dff5ff"/><path d="m489.5 75h-22.5l-30-37.5 30-37.5h22.5c4.142 0 7.5 3.358 7.5 7.5v60c0 4.142-3.358 7.5-7.5 7.5z" fill="#bfebff"/><path d="m467 75h-37.5c-4.142 0-7.5-3.358-7.5-7.5v-60c0-4.142 3.358-7.5 7.5-7.5h37.5z" fill="#dff5ff"/><path d="m293.5 233.5h-30v30h30c8.284 0 15-6.716 15-15s-6.716-15-15-15z" fill="#5a7ba0"/><path d="m278.5 248.5c0-8.284-6.716-15-15-15v-30c0-8.284-6.716-15-15-15s-15 6.716-15 15v30h-30c-8.284 0-15 6.716-15 15s6.716 15 15 15h30v30c0 8.284 6.716 15 15 15s15-6.716 15-15v-30c8.284 0 15-6.716 15-15z" fill="#7397b8"/></g></g></svg>