<?xml version="1.0" encoding="utf-8"?>
<svg xmlns="http://www.w3.org/2000/svg" viewBox="-1 -1 34 34" width="512px" height="512px" xmlns:bx="https://boxy-svg.com"><defs><linearGradient id="wand" x1="0%" y1="0%" x2="100%" y2="0%" gradientTransform="matrix(0.745498, 0.012616, 0.379289, 0.998575, 0.2375, -0.010551)"><stop offset="0" style="stop-color: rgb(0, 195, 255);"/><stop offset="0.499" style="stop-color: rgb(42, 133, 210);"/><stop offset="1" style="stop-color: rgb(0, 57, 114);"/></linearGradient><filter id="s" x="-20%" y="-15%" width="150%" height="140%"><feDropShadow dx="0.5" dy="0.8" stdDeviation="0.6" flood-color="#000" flood-opacity="0.3"/></filter><filter id="glow" x="-60%" y="-60%" width="220%" height="220%"><feDropShadow dx="0" dy="0" stdDeviation="1.8" flood-color="#f8e070" flood-opacity="0.9"/></filter><bx:export><bx:file format="svg" path="magic_wand.svg" width="512" height="512"/></bx:export></defs><g filter="url(#s)" style="transform-origin: 13.65px 15.75px 0px;" transform="matrix(0.756912, 0.653516, -0.653516, 0.756912, 6.680398, -4.94149)"><path d="M 12.5 12 L 15.5 12 L 16 39.705 C 14.667 40.677 13.333 40.677 12 39.705 L 12.5 12 Z" fill="url(#wand)" stroke-width="0.6" stroke-linejoin="round" style="stroke: rgb(37, 114, 208);"/><rect x="11.8" y="11" width="4.4" height="2.5" rx="1" fill="#c8a030" stroke="#8a6a10" stroke-width="0.5"/><rect x="12.2" y="11.2" width="1.5" height="1" rx="0.5" fill="#e8d060" opacity="0.35"/><g filter="url(#glow)" transform="matrix(0.999001, 0.044687, -0.044687, 0.999001, -0.024784, 0.729567)" style="transform-origin: 14px 6px 0px;"><polygon points="14,0 15.5,4.5 20,5.5 16.2,8 17,12 14,9.8 11,12 11.8,8 8,5.5 12.5,4.5" fill="#f8e070" stroke="#c8a030" stroke-width="0.4"/><polygon points="14,2.5 15,5 17.5,5.8 15.5,7.5 16,10 14,8.5 12,10 12.5,7.5 10.5,5.8 13,5" fill="#fffce0" opacity="0.5"/></g><g filter="url(#glow)" transform="matrix(1, 0, 0, 1, 0.971491, 5.673383)"><polygon points="6.36 2.09 6.86 3.89 8.86 4.59 6.86 5.29 6.36 7.09 5.86 5.29 3.86 4.59 5.86 3.89" fill="#f8e070" opacity="0.7"/><polygon points="19.949 6.104 20.349 7.304 21.749 7.604 20.349 7.904 19.949 9.104 19.549 7.904 18.149 7.604 19.549 7.304" fill="#f8e070" opacity="0.5"/><circle cx="8.562" cy="8.651" r="0.7" fill="#f8e070" opacity="0.55"/><circle cx="20" cy="3" r="0.5" fill="#f8e070" opacity="0.45"/></g></g></svg>