<?xml version="1.0" encoding="utf-8"?>
<svg xmlns="http://www.w3.org/2000/svg" viewBox="0 0 256 256" width="256" height="256" xmlns:bx="https://boxy-svg.com"><defs><linearGradient id="nibGrad" x1="0%" y1="0%" x2="100%" y2="0%"><stop offset="0" stop-color="#b8a848"/><stop offset="0.15" stop-color="#e8d870"/><stop offset="0.3" stop-color="#c8b850"/><stop offset="0.5" stop-color="#ddd068"/><stop offset="0.7" stop-color="#c0b048"/><stop offset="0.85" stop-color="#e0d060"/><stop offset="1" stop-color="#a89838"/></linearGradient><linearGradient id="nibTipGrad" x1="0%" y1="0%" x2="100%" y2="0%"><stop offset="0" stop-color="#907828"/><stop offset="0.5" stop-color="#b89838"/><stop offset="1" stop-color="#806820"/></linearGradient><linearGradient id="gripGrad" x1="0%" y1="0%" x2="100%" y2="0%"><stop offset="0" stop-color="#2a2a32"/><stop offset="0.2" stop-color="#3a3a44"/><stop offset="0.5" stop-color="#2e2e38"/><stop offset="0.8" stop-color="#3a3a44"/><stop offset="1" stop-color="#222230"/></linearGradient><linearGradient id="curveGrad" x1="0%" y1="0%" x2="100%" y2="100%"><stop offset="0" stop-color="#1a1a88"/><stop offset="0.5" stop-color="#3344cc"/><stop offset="1" stop-color="#5566ee"/></linearGradient><radialGradient id="nodeGrad" cx="40%" cy="35%" r="55%"><stop offset="0" stop-color="#66aaff"/><stop offset="1" stop-color="#2266cc"/></radialGradient><filter id="penShadow" x="-12%" y="-8%" width="130%" height="130%"><feDropShadow dx="2" dy="5" stdDeviation="6" flood-color="#000" flood-opacity="0.5"/></filter><filter id="inkGlow" x="-30%" y="-30%" width="160%" height="160%"><feDropShadow dx="0" dy="0" stdDeviation="4" flood-color="#3344cc" flood-opacity="0.6"/></filter><filter id="dropGlow" x="-40%" y="-40%" width="180%" height="180%"><feDropShadow dx="0" dy="0" stdDeviation="3" flood-color="#2233aa" flood-opacity="0.7"/></filter><filter id="nodeGlow" x="-50%" y="-50%" width="200%" height="200%"><feDropShadow dx="0" dy="0" stdDeviation="3" flood-color="#4488ff" flood-opacity="0.8"/></filter><filter id="handleGlow" x="-20%" y="-20%" width="140%" height="140%"><feDropShadow dx="0" dy="0" stdDeviation="2" flood-color="#4488ff" flood-opacity="0.4"/></filter><bx:export><bx:file format="svg" path="lantern-ink.svg"/><bx:file format="svg" href="#object-0"/></bx:export></defs><g filter="url(#inkGlow)" transform="matrix(1.513917, 0, 0, 1.475782, -4.629527, -109.444901)" style=""><path d="M38,210 C80,210 85,105 148,130" fill="none" stroke="url(#curveGrad)" stroke-width="5" stroke-linecap="round"/><path d="M38,210 C80,210 85,105 148,130" fill="none" stroke="#5588ff" stroke-width="1.5" stroke-linecap="round" opacity="0.3"/></g><g filter="url(#handleGlow)" transform="matrix(1.513917, 0, 0, 1.475782, -4.629527, -109.444901)" style=""><line x1="38.801" y1="206.611" x2="42.123" y2="166.023" stroke="#4488ff" stroke-width="1.8" stroke-dasharray="4 3" style="transform-origin: 40.685px 182.268px 0px; opacity: 0.8;"/><line x1="148" y1="130" x2="85" y2="105" stroke="#4488ff" stroke-width="1.8" stroke-dasharray="4 3" style="opacity: 0.8;"/></g><g filter="url(#nodeGlow)" style="transform-origin: 62.8284px 210px 0px; opacity: 0.8;" transform="matrix(0.114889, -1.499099, 1.65836, 0.049964, -5.864883, -51.75301)"><rect x="74" y="204" width="12" height="12" rx="2" fill="#4488ff" transform="rotate(45, 80, 210)"/></g><g filter="url(#nodeGlow)" transform="matrix(1.513917, 0, 0, 1.475782, -4.629527, -109.444901)" style=""><rect x="30" y="202" width="16" height="16" rx="3" fill="url(#nodeGrad)" stroke="#88ccff" stroke-width="1.5"/><rect x="34" y="206" width="8" height="8" rx="1.5" fill="#aaddff" opacity="0.3"/><rect x="140" y="122" width="16" height="16" rx="3" fill="url(#nodeGrad)" stroke="#88ccff" stroke-width="1.5"/><rect x="144" y="126" width="8" height="8" rx="1.5" fill="#aaddff" opacity="0.3"/></g><g filter="url(#penShadow)" transform="matrix(1.159727, -0.948615, 0.973127, 1.130514, -124.243607, 137.699051)" style=""><rect x="115" y="12" width="26" height="98" rx="6" fill="url(#gripGrad)"/><rect x="115" y="12" width="7" height="98" rx="3" fill="#3e3e4a" opacity="0.4"/><rect x="133" y="12" width="4" height="98" rx="2" fill="#4a4a56" opacity="0.2"/><rect x="113" y="100" width="30" height="8" rx="2" fill="#4a4a56" stroke="#5a5a66" stroke-width="0.8"/><rect x="113" y="102" width="30" height="2" fill="#5a5a66" opacity="0.3"/><rect x="113" y="10" width="30" height="6" rx="3" fill="#3a3a44" stroke="#4a4a56" stroke-width="0.8"/><rect x="138" y="8" width="5" height="50" rx="2" fill="#4a4a56"/><rect x="138" y="8" width="2" height="50" rx="1" fill="#5a5a66" opacity="0.3"/><circle cx="140.5" cy="54" r="3" fill="#4a4a56" stroke="#5a5a66" stroke-width="0.8"/><path d="M118,108 L138,108 L135,125 L121,125 Z" fill="#1e1e28"/><path d="M120,124 L136,124 L133,168 Q130,184 128,188 Q126,184 123,168 Z" fill="url(#nibGrad)"/><line x1="128" y1="130" x2="128" y2="186" stroke="#705a18" opacity="0.6" style="stroke-width: 2.67607px;"/><circle cx="128" cy="140" r="2.5" fill="#1e1e28"/><line x1="125" y1="126" x2="126" y2="180" stroke="#a89838" stroke-width="0.6" opacity="0.3"/><line x1="131" y1="126" x2="130" y2="180" stroke="#ddd068" stroke-width="0.6" opacity="0.2"/><ellipse cx="128" cy="188" rx="2.5" ry="3" fill="url(#nibTipGrad)"/><ellipse cx="128" cy="190" rx="1.5" ry="1.5" fill="#c8b850" opacity="0.5"/><path d="M126,175 Q128,188 130,175 Q130,182 128,190 Q126,182 126,175 Z" fill="#2222aa" opacity="0.5"/></g><g filter="url(#dropGlow)" transform="matrix(1.17232, 1.40863, -1.399326, 1.164578, 62.780491, -3.551886)" style="transform-origin: 116.933px 169.245px 0px;"><g transform="translate(118, 168)"><path d="M0,-8 Q5,-2 0,5 Q-5,-2 0,-8 Z" fill="#2244bb"/><ellipse cx="-1" cy="-2" rx="1.5" ry="2.5" fill="#4466dd" opacity="0.5"/><ellipse cx="-1" cy="-4" rx="0.8" ry="1.2" fill="#fff" opacity="0.3"/></g><g transform="matrix(1, 0, 0, 1, 104.276527, 161.808395)"><path d="M0,-6 Q4,-1 0,4 Q-4,-1 0,-6 Z" fill="#2244bb"/><ellipse cx="-0.8" cy="-1.5" rx="1" ry="1.8" fill="#4466dd" opacity="0.5"/><ellipse cx="-0.8" cy="-3" rx="0.6" ry="1" fill="#fff" opacity="0.3"/></g><g transform="matrix(1, 0, 0, 1, 130.772858, 167.50647)"><path d="M0,-4 Q2.5,-0.5 0,3 Q-2.5,-0.5 0,-4 Z" fill="#2244bb"/><ellipse cx="-0.5" cy="-1" rx="0.8" ry="1.2" fill="#4466dd" opacity="0.4"/></g></g><g filter="url(#inkGlow)" transform="matrix(1.513917, 0, 0, 1.475782, -4.629527, -109.444901)" style="opacity: 0.8;"><path d="M38,210 C38,240 100,245 140,230" fill="none" stroke="#3344cc" stroke-width="3" stroke-linecap="round" stroke-dasharray="6 4"/></g><g filter="url(#nodeGlow)" transform="matrix(1.513917, 0, 0, 1.475782, -4.629527, -109.444901)" style="opacity: 0.8;" id="object-0"><rect x="132" y="222" width="14" height="14" rx="3" fill="url(#nodeGrad)" transform="rotate(0, 139, 229)"/></g><g filter="url(#nodeGlow)" style="transform-origin: 62.8284px 210px 0px; opacity: 0.8;" transform="matrix(0.114889, -1.499099, 1.65836, 0.049964, 60.310097, -137.628479)"><rect x="74" y="204" width="12" height="12" rx="2" fill="#4488ff" transform="rotate(45, 80, 210)"/></g><g filter="url(#dropGlow)" transform="matrix(-0.045001, -1.513248, 1.47513, -0.043867, -76.141762, -90.648926)" style="transform-origin: 117.125px 170px 0px;"><g transform="matrix(0.84951, -0.541205, 0.514283, 0.84951, 118, 168)" style="transform-origin: 0px -1.5px 0px;"><path d="M0,-8 Q5,-2 0,5 Q-5,-2 0,-8 Z" fill="#2244bb"/><ellipse cx="-1" cy="-2" rx="1.5" ry="2.5" fill="#4466dd" opacity="0.5"/><ellipse cx="-1" cy="-4" rx="0.8" ry="1.2" fill="#fff" opacity="0.3"/></g><g transform="matrix(0.867662, -0.510001, 0.484632, 0.867662, 99.488014, 175.352417)" style="transform-origin: 0px -1px 0px;"><path d="M0,-6 Q4,-1 0,4 Q-4,-1 0,-6 Z" fill="#2244bb"/><ellipse cx="-0.8" cy="-1.5" rx="1" ry="1.8" fill="#4466dd" opacity="0.5"/><ellipse cx="-0.8" cy="-3" rx="0.6" ry="1" fill="#fff" opacity="0.3"/></g><g transform="matrix(0.785168, -0.635286, 0.603684, 0.785167, 129.517929, 153.35495)" style="transform-origin: -0.0249999px -0.5px 0px;"><path d="M0,-4 Q2.5,-0.5 0,3 Q-2.5,-0.5 0,-4 Z" fill="#2244bb"/><ellipse cx="-0.5" cy="-1" rx="0.8" ry="1.2" fill="#4466dd" opacity="0.4"/></g></g></svg>